<svg xmlns="http://www.w3.org/2000/svg" viewBox="-24.47999999999999 -12 253.76 253.76"><style>path{fill:#0B4C8C}@media (prefers-color-scheme:dark){path{fill:#7EA6D9}}</style><path d="M38.95 68.05C20.28 70.68 2.96 57.62.34 38.95-2.29 20.28 10.77 2.96 29.44.34s35.99 10.43 38.62 29.1c2.62 18.67-10.43 35.99-29.1 38.62ZM31.18 12.77c-11.81 1.66-20.07 12.62-18.41 24.43 1.66 11.81 12.62 20.07 24.43 18.41 11.81-1.66 20.07-12.62 18.41-24.43-1.66-11.81-12.62-20.07-24.43-18.41ZM172.6 76.01c-14.86 2.09-28.65-8.3-30.74-23.16-2.09-14.86 8.3-28.65 23.16-30.74 1.28-.18 2.55-.27 3.81-.27 13.34 0 25.02 9.85 26.93 23.43 2.09 14.86-8.3 28.65-23.16 30.74ZM166.77 34.55c-8 1.12-13.6 8.55-12.47 16.55s8.55 13.6 16.55 12.47c8-1.12 13.6-8.55 12.47-16.55-1.12-8-8.55-13.6-16.55-12.47ZM187.39 181.27c-.95.13-1.9.2-2.83.2-9.92 0-18.61-7.32-20.03-17.42-1.55-11.05 6.17-21.3 17.22-22.85 11.05-1.55 21.3 6.17 22.86 17.22 1.55 11.05-6.17 21.3-17.22 22.85ZM183.51 153.63c-4.19.59-7.12 4.48-6.53 8.67.59 4.19 4.48 7.12 8.67 6.53 4.19-.59 7.12-4.48 6.53-8.67-.59-4.19-4.48-7.12-8.67-6.53ZM29.54 147.15c-10.29 1.45-19.83-5.75-21.28-16.03-1.45-10.29 5.75-19.83 16.03-21.28 10.29-1.45 19.83 5.75 21.28 16.03 1.45 10.29-5.75 19.83-16.04 21.28ZM26.05 122.27c-3.43.48-5.82 3.67-5.34 7.1.48 3.43 3.66 5.83 7.09 5.35 3.43-.48 5.83-3.67 5.35-7.1s-3.66-5.83-7.09-5.35ZM89.83 229.51c-13.59 1.91-26.2-7.59-28.11-21.18-1.91-13.59 7.59-26.2 21.18-28.11 13.59-1.91 26.2 7.59 28.11 21.18 1.91 13.59-7.59 26.2-21.18 28.11ZM84.65 192.66c-6.73.95-11.44 7.2-10.49 13.93.95 6.73 7.19 11.44 13.92 10.49 6.73-.95 11.44-7.2 10.49-13.93-.95-6.73-7.19-11.44-13.92-10.49ZM83.14 80.52l-25.82-29.47-9.45 8.28 25.99 29.66c2.46-3.41 5.7-6.2 9.28-8.47ZM145.75 132c-1.05 4.03-3.41 7.79-6.33 10.85l29.92 16.96 6.19-10.93-29.79-16.88ZM91.57 155.31l-7.06 30 12.23 2.88 6.91-29.4c-4.17-.41-8.2-1.73-12.09-3.48ZM62.39 123.14c-.37-1.87-.5-3.97-.17-5.94l-23.73 3.34 1.75 12.43 24.48-3.44c-1.18-1.94-1.89-4.22-2.32-6.39ZM135.94 85.84c1.36 1.35 2.7 2.97 3.7 4.73l19.77-21.79-9.31-8.44-19.23 21.2c1.8 1.3 3.5 2.73 5.07 4.3ZM101.79 80.39c20.35-2.86 39.17 11.32 42.03 31.67 2.86 20.35-11.32 39.17-31.67 42.03-20.35 2.86-39.17-11.32-42.03-31.67-2.86-20.35 11.32-39.17 31.67-42.03M100.05 67.95c-27.18 3.82-46.18 29.04-42.36 56.22 3.82 27.18 29.04 46.18 56.22 42.36 27.18-3.82 46.18-29.04 42.36-56.22-3.82-27.18-29.04-46.18-56.22-42.36h0Z"/></svg>
